<svg width="25" height="26" viewBox="0 0 25 26" fill="none" xmlns="http://www.w3.org/2000/svg">
<g clip-path="url(#clip0_2_504)">
<path fill-rule="evenodd" clip-rule="evenodd" d="M6.25 0.5C5.55964 0.5 5 1.05964 5 1.75C5 2.44036 5.55964 3 6.25 3H7.5V4.25C7.5 4.90011 7.99833 5.44169 8.64619 5.49568L22.3251 6.63559L21.4159 13H8.75C8.05964 13 7.5 13.5596 7.5 14.25V18.2134C6.04351 18.7282 5 20.1172 5 21.75C5 23.8211 6.67893 25.5 8.75 25.5C10.8211 25.5 12.5 23.8211 12.5 21.75C12.5 21.3117 12.4248 20.891 12.2866 20.5H16.4634C16.3252 20.891 16.25 21.3117 16.25 21.75C16.25 23.8211 17.9289 25.5 20 25.5C22.0711 25.5 23.75 23.8211 23.75 21.75C23.75 19.6789 22.0711 18 20 18H10V15.5H22.5C23.1221 15.5 23.6495 15.0426 23.7374 14.4268L24.9874 5.67678C25.0361 5.33597 24.9421 4.99018 24.7275 4.72095C24.513 4.45172 24.1969 4.28291 23.8538 4.25432L10 3.09983V1.75C10 1.05964 9.44036 0.5 8.75 0.5H6.25ZM20 20.5C19.3096 20.5 18.75 21.0596 18.75 21.75C18.75 22.4404 19.3096 23 20 23C20.6904 23 21.25 22.4404 21.25 21.75C21.25 21.0596 20.6904 20.5 20 20.5ZM8.75 20.5C8.05964 20.5 7.5 21.0596 7.5 21.75C7.5 22.4404 8.05964 23 8.75 23C9.44036 23 10 22.4404 10 21.75C10 21.0596 9.44036 20.5 8.75 20.5Z" fill="#E11E61"/>
<path d="M0 4.25C0 3.55964 0.559644 3 1.25 3H2.5C3.19036 3 3.75 3.55964 3.75 4.25C3.75 4.94036 3.19036 5.5 2.5 5.5H1.25C0.559644 5.5 0 4.94036 0 4.25Z" fill="#E11E61"/>
<path d="M1.25 8C0.559644 8 0 8.55964 0 9.25C0 9.94036 0.559644 10.5 1.25 10.5H8.75C9.44036 10.5 10 9.94036 10 9.25C10 8.55964 9.44036 8 8.75 8H1.25Z" fill="#E11E61"/>
<path d="M0 14.25C0 13.5596 0.559644 13 1.25 13H3.75C4.44036 13 5 13.5596 5 14.25C5 14.9404 4.44036 15.5 3.75 15.5H1.25C0.559644 15.5 0 14.9404 0 14.25Z" fill="#E11E61"/>
<path d="M1.25 18C0.559644 18 0 18.5596 0 19.25C0 19.9404 0.559644 20.5 1.25 20.5H2.5C3.19036 20.5 3.75 19.9404 3.75 19.25C3.75 18.5596 3.19036 18 2.5 18H1.25Z" fill="#E11E61"/>
</g>
<defs>
<clipPath id="clip0_2_504">
<rect width="25" height="25" fill="white" transform="translate(0 0.5)"/>
</clipPath>
</defs>
</svg>
