<svg width="25" height="26" viewBox="0 0 25 26" fill="none" xmlns="http://www.w3.org/2000/svg">
<g clip-path="url(#clip0_2_548)">
<path d="M13.1772 1.69422C12.7629 1.43526 12.2371 1.43526 11.8228 1.69422L2.80167 7.33242C1.68088 8.03291 1 9.26138 1 10.5831V21.5C1 23.1569 2.34315 24.5 4 24.5H7.66667C8.21895 24.5 8.66667 24.0523 8.66667 23.5V16.8333C8.66667 16.1276 9.23875 15.5556 9.94444 15.5556H15.0556C15.7613 15.5556 16.3333 16.1276 16.3333 16.8333V23.5C16.3333 24.0523 16.781 24.5 17.3333 24.5H21C22.6569 24.5 24 23.1569 24 21.5V10.5831C24 9.26138 23.3191 8.03292 22.1983 7.33242L13.1772 1.69422Z" stroke="#595959" stroke-width="2.5" stroke-linecap="round" stroke-linejoin="round"/>
</g>
<defs>
<clipPath id="clip0_2_548">
<rect width="25" height="25" fill="white" transform="translate(0 0.5)"/>
</clipPath>
</defs>
</svg>
