<svg width="23" height="24" viewBox="0 0 23 24" fill="none" xmlns="http://www.w3.org/2000/svg">
<path d="M12.1772 0.694224C11.7629 0.435259 11.2371 0.435259 10.8228 0.694224L1.80167 6.33242C0.680875 7.03291 0 8.26138 0 9.58308V20.5C0 22.1569 1.34315 23.5 3 23.5H6.66667C7.21895 23.5 7.66667 23.0523 7.66667 22.5V15.8333C7.66667 15.1276 8.23875 14.5556 8.94444 14.5556H14.0556C14.7613 14.5556 15.3333 15.1276 15.3333 15.8333V22.5C15.3333 23.0523 15.781 23.5 16.3333 23.5H20C21.6569 23.5 23 22.1569 23 20.5V9.58308C23 8.26138 22.3191 7.03292 21.1983 6.33242L12.1772 0.694224Z" fill="#E11E61"/>
</svg>
