<svg width="27" height="26" viewBox="0 0 27 26" fill="none" xmlns="http://www.w3.org/2000/svg">
<path fill-rule="evenodd" clip-rule="evenodd" d="M2.5 2.5C1.11929 2.5 0 3.61929 0 5V20C0 21.3807 1.11929 22.5 2.5 22.5H24.1667C25.5474 22.5 26.6667 21.3807 26.6667 20V5C26.6667 3.61929 25.5474 2.5 24.1667 2.5H2.5ZM5.85754 6.07084C5.06824 5.59726 4.04447 5.8532 3.57089 6.6425C3.09731 7.43181 3.35325 8.45557 4.14255 8.92915L12.4759 13.9292C13.0037 14.2458 13.6631 14.2458 14.1909 13.9292L22.5242 8.92915C23.3135 8.45557 23.5694 7.43181 23.0959 6.6425C22.6223 5.8532 21.5985 5.59726 20.8092 6.07084L13.3334 10.5563L5.85754 6.07084Z" fill="#5C5F62"/>
</svg>
