<svg width="28" height="21" viewBox="0 0 28 21" fill="none" xmlns="http://www.w3.org/2000/svg">
<path fill-rule="evenodd" clip-rule="evenodd" d="M3 0.5C1.61929 0.5 0.5 1.61929 0.5 3V18C0.5 19.3807 1.61929 20.5 3 20.5H24.6667C26.0474 20.5 27.1667 19.3807 27.1667 18V3C27.1667 1.61929 26.0474 0.5 24.6667 0.5H3ZM6.35754 4.07084C5.56824 3.59726 4.54447 3.8532 4.07089 4.6425C3.59731 5.43181 3.85325 6.45557 4.64255 6.92915L12.9759 11.9292C13.5037 12.2458 14.1631 12.2458 14.6909 11.9292L23.0242 6.92915C23.8135 6.45557 24.0694 5.43181 23.5959 4.6425C23.1223 3.8532 22.0985 3.59726 21.3092 4.07084L13.8334 8.55635L6.35754 4.07084Z" fill="#E11E61"/>
</svg>
