<svg width="98" height="98" viewBox="0 0 98 98" fill="none" xmlns="http://www.w3.org/2000/svg">
<g filter="url(#filter0_d_28_77)">
<circle cx="49" cy="45" r="35" fill="white"/>
</g>
<circle cx="49" cy="45" r="25" fill="#DA70D6"/>
<path d="M38.056 51.112C37.2347 51.112 36.4987 50.9787 35.848 50.712C35.1973 50.4453 34.6747 50.0507 34.28 49.528C33.896 49.0053 33.6933 48.376 33.672 47.64H36.584C36.6267 48.056 36.7707 48.376 37.016 48.6C37.2613 48.8133 37.5813 48.92 37.976 48.92C38.3813 48.92 38.7013 48.8293 38.936 48.648C39.1707 48.456 39.288 48.1947 39.288 47.864C39.288 47.5867 39.192 47.3573 39 47.176C38.8187 46.9947 38.5893 46.8453 38.312 46.728C38.0453 46.6107 37.6613 46.4773 37.16 46.328C36.4347 46.104 35.8427 45.88 35.384 45.656C34.9253 45.432 34.5307 45.1013 34.2 44.664C33.8693 44.2267 33.704 43.656 33.704 42.952C33.704 41.9067 34.0827 41.0907 34.84 40.504C35.5973 39.9067 36.584 39.608 37.8 39.608C39.0373 39.608 40.0347 39.9067 40.792 40.504C41.5493 41.0907 41.9547 41.912 42.008 42.968H39.048C39.0267 42.6053 38.8933 42.3227 38.648 42.12C38.4027 41.9067 38.088 41.8 37.704 41.8C37.3733 41.8 37.1067 41.8907 36.904 42.072C36.7013 42.2427 36.6 42.4933 36.6 42.824C36.6 43.1867 36.7707 43.4693 37.112 43.672C37.4533 43.8747 37.9867 44.0933 38.712 44.328C39.4373 44.5733 40.024 44.808 40.472 45.032C40.9307 45.256 41.3253 45.5813 41.656 46.008C41.9867 46.4347 42.152 46.984 42.152 47.656C42.152 48.296 41.9867 48.8773 41.656 49.4C41.336 49.9227 40.8667 50.3387 40.248 50.648C39.6293 50.9573 38.8987 51.112 38.056 51.112ZM48.9878 51.112C47.9318 51.112 46.9611 50.8667 46.0758 50.376C45.2011 49.8853 44.5024 49.2027 43.9798 48.328C43.4678 47.4427 43.2118 46.4507 43.2118 45.352C43.2118 44.2533 43.4678 43.2667 43.9798 42.392C44.5024 41.5173 45.2011 40.8347 46.0758 40.344C46.9611 39.8533 47.9318 39.608 48.9878 39.608C50.0438 39.608 51.0091 39.8533 51.8838 40.344C52.7691 40.8347 53.4624 41.5173 53.9638 42.392C54.4758 43.2667 54.7318 44.2533 54.7318 45.352C54.7318 46.4507 54.4758 47.4427 53.9638 48.328C53.4518 49.2027 52.7584 49.8853 51.8838 50.376C51.0091 50.8667 50.0438 51.112 48.9878 51.112ZM48.9878 48.616C49.8838 48.616 50.5984 48.3173 51.1318 47.72C51.6758 47.1227 51.9478 46.3333 51.9478 45.352C51.9478 44.36 51.6758 43.5707 51.1318 42.984C50.5984 42.3867 49.8838 42.088 48.9878 42.088C48.0811 42.088 47.3558 42.3813 46.8118 42.968C46.2784 43.5547 46.0118 44.3493 46.0118 45.352C46.0118 46.344 46.2784 47.1387 46.8118 47.736C47.3558 48.3227 48.0811 48.616 48.9878 48.616ZM60.1579 51.112C59.3365 51.112 58.6005 50.9787 57.9499 50.712C57.2992 50.4453 56.7765 50.0507 56.3819 49.528C55.9979 49.0053 55.7952 48.376 55.7739 47.64H58.6859C58.7285 48.056 58.8725 48.376 59.1179 48.6C59.3632 48.8133 59.6832 48.92 60.0779 48.92C60.4832 48.92 60.8032 48.8293 61.0379 48.648C61.2725 48.456 61.3899 48.1947 61.3899 47.864C61.3899 47.5867 61.2939 47.3573 61.1019 47.176C60.9205 46.9947 60.6912 46.8453 60.4139 46.728C60.1472 46.6107 59.7632 46.4773 59.2619 46.328C58.5365 46.104 57.9445 45.88 57.4859 45.656C57.0272 45.432 56.6325 45.1013 56.3019 44.664C55.9712 44.2267 55.8059 43.656 55.8059 42.952C55.8059 41.9067 56.1845 41.0907 56.9419 40.504C57.6992 39.9067 58.6859 39.608 59.9019 39.608C61.1392 39.608 62.1365 39.9067 62.8939 40.504C63.6512 41.0907 64.0565 41.912 64.1099 42.968H61.1499C61.1285 42.6053 60.9952 42.3227 60.7499 42.12C60.5045 41.9067 60.1899 41.8 59.8059 41.8C59.4752 41.8 59.2085 41.8907 59.0059 42.072C58.8032 42.2427 58.7019 42.4933 58.7019 42.824C58.7019 43.1867 58.8725 43.4693 59.2139 43.672C59.5552 43.8747 60.0885 44.0933 60.8139 44.328C61.5392 44.5733 62.1259 44.808 62.5739 45.032C63.0325 45.256 63.4272 45.5813 63.7579 46.008C64.0885 46.4347 64.2539 46.984 64.2539 47.656C64.2539 48.296 64.0885 48.8773 63.7579 49.4C63.4379 49.9227 62.9685 50.3387 62.3499 50.648C61.7312 50.9573 61.0005 51.112 60.1579 51.112Z" fill="white"/>
<defs>
<filter id="filter0_d_28_77" x="0" y="0" width="98" height="98" filterUnits="userSpaceOnUse" color-interpolation-filters="sRGB">
<feFlood flood-opacity="0" result="BackgroundImageFix"/>
<feColorMatrix in="SourceAlpha" type="matrix" values="0 0 0 0 0 0 0 0 0 0 0 0 0 0 0 0 0 0 127 0" result="hardAlpha"/>
<feMorphology radius="4" operator="dilate" in="SourceAlpha" result="effect1_dropShadow_28_77"/>
<feOffset dy="4"/>
<feGaussianBlur stdDeviation="5"/>
<feComposite in2="hardAlpha" operator="out"/>
<feColorMatrix type="matrix" values="0 0 0 0 0 0 0 0 0 0 0 0 0 0 0 0 0 0 0.15 0"/>
<feBlend mode="normal" in2="BackgroundImageFix" result="effect1_dropShadow_28_77"/>
<feBlend mode="normal" in="SourceGraphic" in2="effect1_dropShadow_28_77" result="shape"/>
</filter>
</defs>
</svg>
