<svg width="28" height="28" viewBox="0 0 28 28" fill="none" xmlns="http://www.w3.org/2000/svg">
<circle cx="14" cy="14" r="14" fill="white"/>
<path d="M20.5625 23.1875H19.25V21.2188H16.625C15.755 21.2179 14.9209 20.8719 14.3058 20.2567C13.6906 19.6416 13.3446 18.8075 13.3438 17.9375V17.0975L11.8239 16.5915C11.7307 16.5604 11.6457 16.5088 11.5751 16.4405C11.5045 16.3721 11.4502 16.2888 11.4161 16.1966C11.382 16.1045 11.3691 16.0059 11.3782 15.908C11.3873 15.8102 11.4183 15.7157 11.4689 15.6314L13.3438 12.5057V10.7188C13.3455 9.15285 13.9683 7.65158 15.0756 6.54432C16.1828 5.43706 17.6841 4.81424 19.25 4.8125H22.5313V6.125H19.25C18.0321 6.12639 16.8645 6.61082 16.0033 7.47201C15.1421 8.33321 14.6577 9.50084 14.6563 10.7188V12.6875C14.6561 12.8064 14.6237 12.9229 14.5624 13.0248L13.0156 15.6052L14.208 16.0022C14.3387 16.0459 14.4522 16.1295 14.5327 16.2413C14.6131 16.353 14.6563 16.4873 14.6563 16.625V17.9375C14.6568 18.4595 14.8644 18.9599 15.2335 19.329C15.6026 19.6981 16.103 19.9057 16.625 19.9062H19.9063C20.0803 19.9062 20.2472 19.9754 20.3703 20.0985C20.4934 20.2215 20.5625 20.3885 20.5625 20.5625V23.1875Z" fill="#E11E61"/>
<path d="M15.9688 11.375H18.5938V12.6875H15.9688V11.375Z" fill="#E11E61"/>
<path d="M9.62415 20.0487C9.14251 19.6178 8.75721 19.0901 8.49341 18.5002C8.22962 17.9102 8.09326 17.2713 8.09326 16.625C8.09326 15.9788 8.22962 15.3398 8.49341 14.7498C8.75721 14.1599 9.14251 13.6322 9.62415 13.2014L10.4996 14.1792C10.1555 14.4869 9.88032 14.8638 9.69188 15.2852C9.50344 15.7066 9.40604 16.1631 9.40604 16.6247C9.40604 17.0863 9.50344 17.5427 9.69188 17.9641C9.88032 18.3855 10.1555 18.7624 10.4996 19.0702L9.62415 20.0487Z" fill="#E11E61"/>
<path d="M7.69998 22.4C6.80368 21.7274 6.07622 20.8555 5.57521 19.8531C5.07419 18.8508 4.81335 17.7456 4.81335 16.625C4.81335 15.5044 5.07419 14.3992 5.57521 13.3969C6.07622 12.3945 6.80368 11.5226 7.69998 10.85L8.48748 11.9C7.75382 12.4501 7.15834 13.1636 6.7482 13.9837C6.33807 14.8039 6.12454 15.7083 6.12454 16.6253C6.12454 17.5423 6.33807 18.4468 6.7482 19.2669C7.15834 20.0871 7.75382 20.8005 8.48748 21.3507L7.69998 22.4Z" fill="#E11E61"/>
</svg>
