<svg width="25" height="26" viewBox="0 0 25 26" fill="none" xmlns="http://www.w3.org/2000/svg">
<path fill-rule="evenodd" clip-rule="evenodd" d="M12.5 0.5C19.3922 0.5 25 6.10781 25 13C25 19.8922 19.3922 25.5 12.5 25.5C5.60781 25.5 0 19.8922 0 13C0 6.10781 5.60781 0.5 12.5 0.5ZM20.3007 19.2501C18.4664 21.5349 15.651 23 12.5 23C9.34894 23 6.53346 21.5348 4.69914 19.2499C6.53346 16.9651 9.34887 15.5 12.4999 15.5C15.6509 15.5 18.4664 16.9652 20.3007 19.2501ZM12.5 13C14.5711 13 16.25 11.3211 16.25 9.25C16.25 7.17893 14.5711 5.5 12.5 5.5C10.4289 5.5 8.75 7.17893 8.75 9.25C8.75 11.3211 10.4289 13 12.5 13Z" fill="#E11E61"/>
</svg>
