<svg width="25" height="26" viewBox="0 0 25 26" fill="none" xmlns="http://www.w3.org/2000/svg">
<path d="M21.0805 19.8761L21.5831 19.2501L21.0805 18.6241C19.0652 16.1138 15.9679 14.5 12.4999 14.5C9.03186 14.5 5.93464 16.1137 3.91936 18.6239L3.41675 19.2499L3.91934 19.8759C5.93462 22.3862 9.03191 24 12.5 24C15.968 24 19.0652 22.3863 21.0805 19.8761ZM12.5 1.5C18.8399 1.5 24 6.6601 24 13C24 19.3399 18.8399 24.5 12.5 24.5C6.1601 24.5 1 19.3399 1 13C1 6.6601 6.1601 1.5 12.5 1.5ZM12.5 14C15.1234 14 17.25 11.8734 17.25 9.25C17.25 6.62665 15.1234 4.5 12.5 4.5C9.87665 4.5 7.75 6.62665 7.75 9.25C7.75 11.8734 9.87665 14 12.5 14Z" stroke="#595959" stroke-width="2"/>
</svg>
